<svg xmlns="http://www.w3.org/2000/svg" viewBox="0 0 1200 750" role="img" aria-labelledby="title desc">
  <title id="title">Alpine Explorers landscape</title>
  <desc id="desc">A calm illustrated mountain landscape used when a destination photo cannot load.</desc>
  <defs>
    <linearGradient id="sky" x2="0" y2="1"><stop stop-color="#dceaf0"/><stop offset="1" stop-color="#f6efe1"/></linearGradient>
    <linearGradient id="hill" x2="0" y2="1"><stop stop-color="#547a76"/><stop offset="1" stop-color="#183b48"/></linearGradient>
  </defs>
  <path fill="url(#sky)" d="M0 0h1200v750H0z"/>
  <circle cx="935" cy="164" r="62" fill="#d2a955" opacity=".78"/>
  <path fill="#b6c7c6" d="m0 490 210-225 117 123 187-245 253 325 151-177 282 227v232H0z"/>
  <path fill="#f8f6ed" d="m327 388 187-245 118 151-82-47-42 43-44-26-48 63-36-15zM733 468l185-177 152 122-89-47-44 27-59-19-55 44z"/>
  <path fill="url(#hill)" d="m0 560 169-98 143 78 211-139 174 127 174-96 329 148v170H0z"/>
  <path fill="#c6d3ba" opacity=".8" d="M0 630q200-70 405 0t395 0 400 0v120H0z"/>
</svg>
